<?xml version="1.0" encoding="UTF-8" standalone="no"?>
<!-- Created with Inkscape (http://www.inkscape.org/) -->
<svg
   xmlns:dc="http://purl.org/dc/elements/1.1/"
   xmlns:cc="http://creativecommons.org/ns#"
   xmlns:rdf="http://www.w3.org/1999/02/22-rdf-syntax-ns#"
   xmlns:svg="http://www.w3.org/2000/svg"
   xmlns="http://www.w3.org/2000/svg"
   xmlns:sodipodi="http://sodipodi.sourceforge.net/DTD/sodipodi-0.dtd"
   xmlns:inkscape="http://www.inkscape.org/namespaces/inkscape"
   width="744.09448819"
   height="1052.3622047"
   id="svg2562"
   sodipodi:version="0.32"
   inkscape:version="0.46"
   sodipodi:docname="tree.svg"
   inkscape:output_extension="org.inkscape.output.svg.inkscape">
  <defs
     id="defs2564">
    <inkscape:perspective
       sodipodi:type="inkscape:persp3d"
       inkscape:vp_x="0 : 526.18109 : 1"
       inkscape:vp_y="0 : 1000 : 0"
       inkscape:vp_z="744.09448 : 526.18109 : 1"
       inkscape:persp3d-origin="372.04724 : 350.78739 : 1"
       id="perspective2570" />
  </defs>
  <sodipodi:namedview
     id="base"
     pagecolor="#ffffff"
     bordercolor="#666666"
     borderopacity="1.0"
     gridtolerance="10000"
     guidetolerance="10"
     objecttolerance="10"
     inkscape:pageopacity="0.0"
     inkscape:pageshadow="2"
     inkscape:zoom="1.4"
     inkscape:cx="387.82058"
     inkscape:cy="845.49128"
     inkscape:document-units="px"
     inkscape:current-layer="layer1"
     showgrid="false"
     inkscape:window-width="1024"
     inkscape:window-height="749"
     inkscape:window-x="0"
     inkscape:window-y="0" />
  <metadata
     id="metadata2567">
    <rdf:RDF>
      <cc:Work
         rdf:about="">
        <dc:format>image/svg+xml</dc:format>
        <dc:type
           rdf:resource="http://purl.org/dc/dcmitype/StillImage" />
      </cc:Work>
    </rdf:RDF>
  </metadata>
  <g
     inkscape:label="Layer 1"
     inkscape:groupmode="layer"
     id="layer1">
    <g
       id="g2559"
       transform="matrix(1.25,0,0,-1.25,160.55719,978.1087)"
       style="fill:#aa4400">
      <path
         d="M 264.0586,584.04 C 259.4496,583.538 255.4156,582.86 251.2776,581.677 C 244.9796,579.878 238.9656,577.864 232.7116,576.097 C 227.1856,574.537 221.4646,574.067 215.7826,575.055 C 214.8196,575.222 208.4766,576.296 208.4326,577.059 C 208.3806,577.936 211.5326,578.674 212.1696,578.983 C 216.2206,580.939 219.5206,583.106 222.2746,584.906 C 224.9526,586.713 228.1716,589.531 228.1716,589.531 C 228.1716,589.531 224.2276,588.216 221.1636,586.828 C 218.1386,585.51 214.5966,583.853 210.6356,582.39 C 206.9986,581.055 202.9596,579.417 198.7696,579.735 C 197.2396,579.852 195.7366,580.282 194.1666,580.558 C 189.1836,581.436 184.1406,582.306 179.4016,584.097 C 177.3646,584.868 174.2376,585.952 172.7746,587.616 C 171.2366,589.367 173.7506,591.138 175.2416,592.018 C 179.8346,594.729 188.0136,596.972 191.8186,597.873 C 205.7446,601.174 217.1156,602.48 230.5046,604.062 C 238.0756,604.957 244.6856,605.741 252.2726,604.499 C 257.9906,603.563 264.2766,603.304 270.2766,602.944 C 274.9926,602.663 279.6016,602.218 284.3206,602.106 C 285.7716,602.07 288.3006,601.061 289.5986,602.012 C 289.9096,602.24 292.2216,604.764 290.9426,605.101 C 279.5376,608.111 267.0226,608.163 255.2546,610.343 C 249.2666,611.452 243.3936,612.923 237.1036,613.019 C 232.6896,613.086 221.0636,609.614 218.3116,612.446 C 221.5176,618.582 229.9446,623.006 235.5086,627.151 C 241.3456,631.5 252.3606,633.066 256.3766,638.665 C 251.0896,637.954 244.0526,634.142 238.9846,631.91 C 233.5356,629.512 228.9176,625.698 224.1626,622.394 C 214.5596,615.722 205.7986,609.654 194.1446,608.05 C 191.9376,607.746 189.7706,607.221 187.6446,606.576 C 185.8616,606.036 183.4776,604.61 181.6386,604.738 C 181.6746,605.523 183.1286,606.74 183.6406,607.443 C 184.4046,608.492 185.1466,609.556 185.8766,610.627 C 187.1206,612.449 188.3636,614.276 189.5796,616.116 C 193.6576,622.291 197.1756,625.395 197.1766,625.399 C 197.2136,625.422 192.9066,623.138 187.7876,617.472 C 185.1906,614.714 182.3606,611.234 179.0846,607.675 C 176.7976,605.207 174.5096,602.225 171.2716,600.69 C 167.7656,599.029 163.7436,598.783 159.7186,598.895 C 145.3106,599.296 131.2556,603.066 116.8056,602.037 C 109.1136,601.489 101.2036,600.084 93.9666,597.432 C 87.3556,595.104 82.8696,590.986 76.1536,595.418 C 75.7086,595.711 75.2906,596.033 74.8866,596.367 C 74.8576,606.836 74.8156,617.32 74.7576,627.85 C 74.7616,628.478 74.7706,629.106 74.7826,629.736 C 74.7956,630.364 74.8116,630.994 74.8326,631.623 C 74.9006,637.317 75.4386,642.917 76.1866,648.532 C 77.2766,656.713 78.8136,664.924 79.9996,673.5 C 79.4506,673.262 78.8976,673.027 78.3426,672.796 C 67.7986,668.392 56.3786,665.08 44.5706,663.233 C 42.4176,663.186 40.3286,663.178 38.3626,663.178 L 24.5976,663.178 L 24.5976,599.039 C 27.3726,556.97 29.2156,515.196 26.2996,473.171 C 26.2056,471.814 26.1066,470.458 26.0056,469.102 C 25.9996,417.875 27.9996,367.939 23.2436,317.84 C 23.2846,316.475 23.3296,315.109 23.3766,313.746 C 23.7486,302.827 24.1646,291.906 24.5976,280.98 L 24.5976,229.143 C 22.9996,204.864 22.9996,179.895 23.2246,155.826 C 23.2266,155.192 23.2286,154.561 23.2296,153.926 C 23.2546,133.052 22.4416,112.296 17.2006,92.102 C 16.8496,90.805 16.4796,89.521 16.0906,88.251 C 10.2496,69.216 -0.0004,53.461 -18.0004,48.111 C 0.9996,39.788 19.9996,46.923 38.2486,51.3 C 39.1026,51.3 39.9446,51.264 40.7786,51.197 C 44.9436,50.87 48.8986,49.808 53.0786,48.878 C 53.9136,48.691 54.7586,48.514 55.6166,48.344 C 75.9996,45.733 96.9996,44.544 116.9996,52.867 C 85.4666,59.842 80.8226,91.114 79.7666,122.464 C 79.7196,123.888 79.6786,125.313 79.6436,126.737 C 79.9996,136.094 79.9996,145.605 79.5926,155.55 C 79.5926,155.55 79.5866,155.729 79.5776,156.086 C 79.6576,162.893 79.6506,169.69 79.5846,176.486 C 79.5786,177.104 79.5716,177.722 79.5646,178.339 C 78.9996,185.658 78.9996,194.301 79.1026,202.424 C 79.0876,203.042 79.0716,203.659 79.0556,204.276 C 78.5466,224.043 77.8616,243.832 77.6906,263.76 C 77.6906,264.515 77.6906,265.271 77.6906,266.028 L 77.6906,299.453 C 77.6386,303.388 77.5896,307.334 77.5446,311.286 C 77.5306,312.603 77.5166,313.922 77.5016,315.241 C 77.2756,317.829 77.0656,320.412 76.8716,322.991 C 76.7756,324.282 76.6826,325.572 76.5946,326.86 C 75.2216,368.376 78.7386,409.407 76.2266,451.044 C 76.1456,452.387 76.0586,453.73 75.9646,455.075 C 74.4566,488.564 75.8656,522.255 75.6626,556.218 C 77.1846,558.432 78.9856,560.59 81.1426,562.699 C 86.4126,567.854 92.9826,571.574 99.9116,574.213 C 103.4956,575.578 107.0226,577.224 110.8526,577.843 C 115.4836,578.594 118.6116,576.473 120.6366,572.37 C 121.9986,569.67 121.9156,567.244 122.2226,565.515 C 122.5166,563.769 123.9316,563.273 123.9526,563.275 C 123.9306,563.277 124.1576,564.246 124.2866,566.049 C 124.3936,567.841 124.4606,570.519 123.4996,573.773 C 123.2216,574.755 122.8326,575.708 122.3546,576.617 C 122.1546,576.992 120.7686,578.507 120.7836,578.769 C 120.8436,579.865 126.5326,579.942 128.0076,580.033 C 131.0476,580.219 134.0976,580.271 137.1446,580.19 C 143.1436,580.031 149.1276,579.355 155.0026,578.169 C 158.8586,577.391 162.9516,576.707 166.7076,575.782 C 170.2586,574.908 172.6106,571.564 174.8186,568.975 C 177.6986,565.598 178.3956,562.291 179.7436,558.231 C 180.2286,556.769 180.5696,552.928 181.6806,555.63 C 182.3256,557.197 181.6806,559.466 181.3006,561.015 C 180.7746,563.16 179.9026,565.831 178.9446,567.728 C 178.0326,569.535 175.8296,571.711 178.9776,572.077 C 180.4956,572.253 182.2846,571.31 183.7326,570.949 C 187.2956,570.062 190.8796,569.242 194.4936,568.569 C 201.0146,567.353 207.5826,566.144 214.2376,565.956 C 217.5736,565.863 220.9186,566.03 224.2106,566.569 C 229.0066,567.357 233.3116,568.303 237.8976,566.235 C 240.7556,564.959 243.1886,563.158 245.2316,561.624 C 247.2496,560.049 251.7826,555.235 252.0936,555.515 C 252.4086,555.797 248.4866,561.186 246.8156,563.202 C 245.1346,565.234 243.5266,566.76 241.1406,568.032 C 240.4296,568.412 238.4566,569.282 238.3186,570.258 C 238.1856,571.204 239.6086,571.862 240.3516,572.048 C 242.4246,572.569 244.3766,573.384 246.3986,574.228 C 249.7536,575.629 253.1226,577.005 256.5656,578.194 C 262.6626,580.299 269.1936,580.828 275.6156,581.034 C 280.8896,581.206 286.2206,582.608 291.3946,582.52 C 282.6036,584.965 273.0856,585.023 264.0586,584.04 z"
         style="fill:#aa4400;stroke:#534018;stroke-width:0.98500001000000004;stroke-linecap:butt;stroke-linejoin:miter;stroke-miterlimit:4;stroke-dasharray:none;stroke-opacity:1"
         id="path2592" />
    </g>
    <g
       id="g2602"
       transform="matrix(1.25,0,0,-1.25,322.94919,267.4977)"
       style="fill:#a8f000">
      <path
         d="M 0,0 C 3.938,-0.916 7.836,0.136 12.379,0.253 C 12.17,2.79 8.93,4.135 7.639,6.008 C 4.189,9.89 -3.813,10.321 -4.7,3.788 C -4.273,2.051 -2.982,0.178 -0.429,0.075 C -0.289,0.045 -0.146,0.021 0,0 z"
         style="fill:#a8f000;stroke:#534018;stroke-width:0.50000000000000000;stroke-linecap:butt;stroke-linejoin:miter;stroke-miterlimit:4;stroke-dasharray:none;stroke-opacity:1"
         id="path2604" />
    </g>
    <g
       id="g2606"
       transform="matrix(1.25,0,0,-1.25,338.47957,266.71645)">
      <path
         d="M 0,0 C -4.359,3.647 -10.632,3.804 -16.256,4.625 L -16.749,4.693"
         style="fill:none;stroke:#534018;stroke-width:0.5;stroke-linecap:butt;stroke-linejoin:miter;stroke-miterlimit:4;stroke-dasharray:none;stroke-opacity:1"
         id="path2608" />
    </g>
    <g
       id="g2610"
       transform="matrix(1.25,0,0,-1.25,460.56457,283.95832)"
       style="fill:#a8f000">
      <path
         d="M 0,0 C -2.618,-3.198 -6.332,-4.567 -10.024,-7.181 C -11.313,-4.731 -9.501,-1.555 -9.545,0.938 C -9.022,6.566 -2.884,11.753 1.575,6.29 C 2.231,4.442 2.275,1.95 0.298,0.325 C 0.204,0.216 0.104,0.107 0,0 z"
         style="fill:#a8f000;stroke:#534018;stroke-width:0.50000000000000000;stroke-linecap:butt;stroke-linejoin:miter;stroke-miterlimit:4;stroke-dasharray:none;stroke-opacity:1"
         id="path2612" />
    </g>
    <g
       id="g2614"
       transform="matrix(1.25,0,0,-1.25,447.72269,292.54295)">
      <path
         d="M 0,0 C 1.384,5.956 6.3,9.858 10.315,13.982 L 10.669,14.336"
         style="fill:none;stroke:#534018;stroke-width:0.5;stroke-linecap:butt;stroke-linejoin:miter;stroke-miterlimit:4;stroke-dasharray:none;stroke-opacity:1"
         id="path2616" />
    </g>
    <g
       id="g2618"
       transform="matrix(1.25,0,0,-1.25,380.70369,284.62357)"
       style="fill:#a8f000">
      <path
         d="M 0,0 C -1.668,-3.357 -4.591,-5.378 -7.276,-8.473 C -8.806,-6.64 -7.818,-3.482 -8.295,-1.334 C -8.836,3.656 -4.519,9.529 0.238,5.801 C 1.122,4.348 1.597,2.201 0.196,0.349 C 0.137,0.232 0.07,0.115 0,0 z"
         style="fill:#a8f000;stroke:#534018;stroke-width:0.50000000000000000;stroke-linecap:butt;stroke-linejoin:miter;stroke-miterlimit:4;stroke-dasharray:none;stroke-opacity:1"
         id="path2620" />
    </g>
    <g
       id="g2622"
       transform="matrix(1.25,0,0,-1.25,371.27369,294.94582)">
      <path
         d="M 0,0 C 0.133,5.471 3.634,9.954 6.332,14.428 L 6.57,14.814"
         style="fill:none;stroke:#534018;stroke-width:0.5;stroke-linecap:butt;stroke-linejoin:miter;stroke-miterlimit:4;stroke-dasharray:none;stroke-opacity:1"
         id="path2624" />
    </g>
    <g
       id="g2626"
       transform="matrix(1.25,0,0,-1.25,477.23082,196.17382)"
       style="fill:#a8f000">
      <path
         d="M 0,0 C 3.422,-1.528 6.963,-1.226 11.004,-1.904 C 11.018,0.482 8.246,2.291 7.247,4.25 C 4.487,8.444 -2.58,10.226 -3.876,4.322 C -3.634,2.64 -2.633,0.681 -0.375,0.144 C -0.254,0.092 -0.129,0.044 0,0 z"
         style="fill:#a8f000;stroke:#534018;stroke-width:0.50000000000000000;stroke-linecap:butt;stroke-linejoin:miter;stroke-miterlimit:4;stroke-dasharray:none;stroke-opacity:1"
         id="path2628" />
    </g>
    <g
       id="g2630"
       transform="matrix(1.25,0,0,-1.25,491.07232,198.13495)">
      <path
         d="M 0,0 C -3.584,4.136 -9.138,5.365 -14.065,7.1 L -14.496,7.245"
         style="fill:none;stroke:#534018;stroke-width:0.5;stroke-linecap:butt;stroke-linejoin:miter;stroke-miterlimit:4;stroke-dasharray:none;stroke-opacity:1"
         id="path2632" />
    </g>
    <g
       id="g2634"
       transform="matrix(1.25,0,0,-1.25,477.55057,277.87795)"
       style="fill:#a8f000">
      <path
         d="M 0,0 C 3.71,-0.525 7.03,0.74 11.103,1.203 C 10.458,3.501 7.295,4.475 5.795,6.083 C 1.986,9.354 -5.299,9.119 -4.917,3.086 C -4.221,1.537 -2.719,-0.071 -0.4,0.035 C -0.27,0.019 -0.136,0.007 0,0 z"
         style="fill:#a8f000;stroke:#534018;stroke-width:0.50000000000000000;stroke-linecap:butt;stroke-linejoin:miter;stroke-miterlimit:4;stroke-dasharray:none;stroke-opacity:1"
         id="path2636" />
    </g>
    <g
       id="g2638"
       transform="matrix(1.25,0,0,-1.25,491.39582,275.94745)">
      <path
         d="M 0,0 C -4.585,2.988 -10.263,2.639 -15.478,2.947 L -15.931,2.969"
         style="fill:none;stroke:#534018;stroke-width:0.5;stroke-linecap:butt;stroke-linejoin:miter;stroke-miterlimit:4;stroke-dasharray:none;stroke-opacity:1"
         id="path2640" />
    </g>
    <g
       id="g2642"
       transform="matrix(1.25,0,0,-1.25,390.52182,197.9012)"
       style="fill:#a8f000">
      <path
         d="M 0,0 C -3.252,2.327 -3.812,6.642 -6.224,10.366 C -1.908,10.925 2.998,9.631 6.215,6.914 C 6.314,6.826 6.411,6.735 6.505,6.643 C 7.536,5.63 8.242,4.372 8.447,2.79 C 8.399,-0.76 3.817,-3.113 0.67,-0.615 C 0.607,-0.564 0.544,-0.513 0.3,-0.292 C 0.197,-0.198 0.098,-0.101 0,0 z"
         style="fill:#a8f000;stroke:#534018;stroke-width:0.50000000000000000;stroke-linecap:butt;stroke-linejoin:miter;stroke-miterlimit:4;stroke-dasharray:none;stroke-opacity:1"
         id="path2644" />
    </g>
    <g
       id="g2646"
       transform="matrix(1.25,0,0,-1.25,399.50494,198.06357)">
      <path
         d="M 0,0 C -0.64,1.111 -1.409,2.062 -2.259,2.913 C -2.354,3.007 -2.448,3.102 -2.545,3.194 C -5.91,5.361 -8.255,8.826 -12.47,10.58"
         style="fill:none;stroke:#534018;stroke-width:0.5;stroke-linecap:butt;stroke-linejoin:miter;stroke-miterlimit:4;stroke-dasharray:none;stroke-opacity:1"
         id="path2648" />
    </g>
    <g
       id="g2650"
       transform="matrix(1.25,0,0,-1.25,420.90507,243.10195)"
       style="fill:#a8f000">
      <path
         d="M 0,0 C -2.881,3.404 -1.145,6.724 -1.408,10.749 C 3.938,9.982 10.87,4.161 6.753,-1.125 C 5.049,-2.77 3.051,-2.063 1.191,-1.469 C 0.73,-1.077 0.321,-0.583 0,0 z"
         style="fill:#a8f000;stroke:#534018;stroke-width:0.50000000000000000;stroke-linecap:butt;stroke-linejoin:miter;stroke-miterlimit:4;stroke-dasharray:none;stroke-opacity:1"
         id="path2652" />
    </g>
    <g
       id="g2654"
       transform="matrix(1.25,0,0,-1.25,428.51982,245.05145)">
      <path
         d="M 0,0 C -0.265,0.826 -0.269,1.283 -0.576,2.068 C -2.78,5.953 -4.341,9.176 -7.4,12.056"
         style="fill:none;stroke:#534018;stroke-width:0.5;stroke-linecap:butt;stroke-linejoin:miter;stroke-miterlimit:4;stroke-dasharray:none;stroke-opacity:1"
         id="path2656" />
    </g>
    <g
       id="g2658"
       transform="matrix(1.25,0,0,-1.25,449.60869,187.82545)"
       style="fill:#a8f000">
      <path
         d="M 0,0 C -5.352,1.547 -6.332,5.679 -9.727,9.322 C -4.144,11.688 6.874,10.204 7.177,2.842 C 6.874,0.307 4.459,-0.181 2.26,-0.696 C 1.522,-0.592 0.756,-0.363 0,0 z"
         style="fill:#a8f000;stroke:#534018;stroke-width:0.50000000000000000;stroke-linecap:butt;stroke-linejoin:miter;stroke-miterlimit:4;stroke-dasharray:none;stroke-opacity:1"
         id="path2660" />
    </g>
    <g
       id="g2662"
       transform="matrix(1.25,0,0,-1.25,458.23294,185.26207)">
      <path
         d="M 0,0 C -0.893,0.625 -1.256,1.053 -2.155,1.617 C -7.254,4.004 -11.229,6.143 -16.335,7.091"
         style="fill:none;stroke:#534018;stroke-width:0.5;stroke-linecap:butt;stroke-linejoin:miter;stroke-miterlimit:4;stroke-dasharray:none;stroke-opacity:1"
         id="path2664" />
    </g>
    <g
       id="g2666"
       transform="matrix(1.25,0,0,-1.25,377.20394,216.85382)"
       style="fill:#a8f000">
      <path
         d="M 0,0 C -5.142,0.637 -6.277,4.837 -9.674,8.066 C -4.506,11.626 5.997,12.121 6.651,4.365 C 6.492,1.618 4.23,0.646 2.175,-0.314 C 1.472,-0.341 0.733,-0.243 0,0 z"
         style="fill:#a8f000;stroke:#534018;stroke-width:0.50000000000000000;stroke-linecap:butt;stroke-linejoin:miter;stroke-miterlimit:4;stroke-dasharray:none;stroke-opacity:1"
         id="path2668" />
    </g>
    <g
       id="g2670"
       transform="matrix(1.25,0,0,-1.25,385.23982,212.51232)">
      <path
         d="M 0,0 C -0.876,0.496 -1.241,0.881 -2.121,1.311 C -7.066,2.886 -10.938,4.408 -15.817,4.456"
         style="fill:none;stroke:#534018;stroke-width:0.5;stroke-linecap:butt;stroke-linejoin:miter;stroke-miterlimit:4;stroke-dasharray:none;stroke-opacity:1"
         id="path2672" />
    </g>
    <g
       id="g2674"
       transform="matrix(1.25,0,0,-1.25,308.22932,275.19607)"
       style="fill:#a8f000">
      <path
         d="M 0,0 C -3.322,-2.726 -7.297,-3.593 -11.979,-5.032 C -10.861,-0.623 -10.315,4.494 -6.068,7.92 C -3.945,9.633 -0.815,8.65 1.607,7.096 C 2.178,6.389 2.042,5.109 2.164,3.544 C 1.926,2.236 1.185,0.956 0,0 z"
         style="fill:#a8f000;stroke:#534018;stroke-width:0.50000000000000000;stroke-linecap:butt;stroke-linejoin:miter;stroke-miterlimit:4;stroke-dasharray:none;stroke-opacity:1"
         id="path2676" />
    </g>
    <g
       id="g2678"
       transform="matrix(1.25,0,0,-1.25,309.13319,265.68557)">
      <path
         d="M 0,0 C -5.146,-3.138 -8.19,-7.721 -11.964,-12.239 C -12.026,-12.313 -12.088,-12.386 -12.15,-12.46"
         style="fill:none;stroke:#534018;stroke-width:0.5;stroke-linecap:butt;stroke-linejoin:miter;stroke-miterlimit:4;stroke-dasharray:none;stroke-opacity:1"
         id="path2680" />
    </g>
    <g
       id="g2698"
       transform="matrix(1.25,0,0,-1.25,429.87119,199.83532)"
       style="fill:#a8f000">
      <path
         d="M 0,0 C -4.027,1.5 -6.777,4.497 -10.376,7.819 C -6.004,9.073 -1.308,11.177 3.791,9.229 C 6.339,8.257 7.064,5.057 6.94,2.183 C 6.617,1.333 5.443,0.807 4.151,-0.086 C 2.901,-0.539 1.422,-0.542 0,0 z"
         style="fill:#a8f000;stroke:#534018;stroke-width:0.50000000000000000;stroke-linecap:butt;stroke-linejoin:miter;stroke-miterlimit:4;stroke-dasharray:none;stroke-opacity:1"
         id="path2700" />
    </g>
    <g
       id="g2702"
       transform="matrix(1.25,0,0,-1.25,438.54544,195.8297)">
      <path
         d="M 0,0 C -5.302,2.868 -10.795,3.191 -16.598,4.18 C -16.692,4.196 -16.787,4.214 -16.884,4.228"
         style="fill:none;stroke:#534018;stroke-width:0.5;stroke-linecap:butt;stroke-linejoin:miter;stroke-miterlimit:4;stroke-dasharray:none;stroke-opacity:1"
         id="path2704" />
    </g>
    <g
       id="g2706"
       transform="matrix(1.25,0,0,-1.25,391.48857,278.23807)"
       style="fill:#a8f000">
      <path
         d="M 0,0 C 3.391,-1.909 7.093,-2.05 11.516,-2.591 C 9.864,1.175 8.621,5.666 4.298,8.054 C 2.136,9.248 -0.536,7.869 -2.487,6.092 C -2.896,5.368 -2.586,4.246 -2.466,2.825 C -2.06,1.693 -1.205,0.667 0,0 z"
         style="fill:#a8f000;stroke:#534018;stroke-width:0.50000000000000000;stroke-linecap:butt;stroke-linejoin:miter;stroke-miterlimit:4;stroke-dasharray:none;stroke-opacity:1"
         id="path2708" />
    </g>
    <g
       id="g2710"
       transform="matrix(1.25,0,0,-1.25,389.28032,269.8732)">
      <path
         d="M 0,0 C 5.09,-1.987 8.502,-5.602 12.561,-9.042 C 12.627,-9.098 12.694,-9.153 12.762,-9.21"
         style="fill:none;stroke:#534018;stroke-width:0.5;stroke-linecap:butt;stroke-linejoin:miter;stroke-miterlimit:4;stroke-dasharray:none;stroke-opacity:1"
         id="path2712" />
    </g>
  </g>
</svg>
